<svg id="svg" version="1.1" width="400" height="400" viewBox="0 0 400 400" xmlns="http://www.w3.org/2000/svg" xmlns:xlink="http://www.w3.org/1999/xlink"><g id="svgg"><path id="path0" d="M105.400 41.484 C 94.739 42.938,86.046 51.918,83.604 64.000 C 82.978 67.101,83.252 296.933,83.886 299.800 C 86.007 309.397,92.299 316.418,101.859 319.856 L 105.000 320.986 136.400 321.193 L 167.800 321.400 167.902 359.100 L 168.004 396.800 169.969 396.800 C 171.049 396.800,171.993 396.964,172.067 397.164 C 172.140 397.364,173.640 397.587,175.400 397.658 L 178.600 397.788 178.702 359.502 L 178.804 321.215 219.102 321.107 L 259.400 321.000 260.669 320.095 C 262.843 318.545,263.128 317.003,263.392 305.400 C 263.977 279.635,264.169 276.359,265.203 274.500 C 269.390 266.971,275.572 268.066,278.348 276.828 C 278.675 277.861,278.800 292.691,278.800 330.308 L 278.800 382.358 280.100 381.951 C 280.815 381.727,281.878 381.286,282.462 380.972 C 283.046 380.657,283.811 380.400,284.162 380.400 C 284.513 380.400,284.800 380.220,284.800 380.000 C 284.800 379.780,285.160 379.600,285.600 379.600 C 286.040 379.600,286.400 379.440,286.400 379.243 C 286.400 379.047,286.894 378.763,287.498 378.611 C 289.712 378.055,289.600 379.617,289.600 349.380 L 289.600 321.258 291.900 320.999 C 303.985 319.643,313.179 310.976,315.390 298.856 C 316.293 293.904,316.319 94.339,315.417 92.179 C 314.707 90.480,266.584 42.202,265.001 41.600 C 263.989 41.216,108.200 41.102,105.400 41.484 M257.600 73.653 C 257.600 95.082,257.609 95.320,258.456 96.691 C 260.258 99.606,260.207 99.600,284.033 99.600 L 305.200 99.600 305.200 198.272 C 305.200 271.876,305.082 297.306,304.737 298.372 C 302.512 305.241,296.480 310.400,290.672 310.400 L 289.600 310.400 289.600 294.814 C 289.600 269.942,287.987 263.745,280.600 260.241 C 279.720 259.824,278.687 259.329,278.305 259.141 C 277.328 258.661,269.302 258.712,269.000 259.200 C 268.864 259.420,268.396 259.600,267.960 259.600 C 267.276 259.600,264.479 260.925,261.800 262.517 C 260.101 263.527,255.691 268.391,254.789 270.249 C 252.579 274.803,252.679 273.860,252.432 292.600 L 252.200 310.200 179.421 310.301 C 131.169 310.368,106.507 310.267,106.241 310.001 C 106.020 309.780,105.579 309.600,105.260 309.600 C 101.107 309.600,95.129 302.698,94.396 297.056 C 93.891 293.168,93.900 69.161,94.406 65.267 C 94.999 60.696,97.571 56.710,101.517 54.242 C 105.172 51.957,100.043 52.097,181.900 52.047 L 257.600 52.000 257.600 73.653 M296.346 88.498 C 295.882 88.670,289.449 88.763,282.051 88.705 L 268.600 88.600 268.495 74.802 C 268.437 67.214,268.490 60.743,268.613 60.423 C 268.765 60.027,273.375 64.378,283.013 74.013 C 295.500 86.496,297.090 88.223,296.346 88.498 M112.757 73.799 C 110.251 75.161,110.400 72.535,110.400 115.226 L 110.400 154.080 111.760 155.440 L 113.120 156.800 151.860 156.794 C 193.722 156.788,191.905 156.884,193.240 154.600 C 193.895 153.480,193.943 150.851,193.971 115.062 C 194.004 72.088,194.224 75.364,191.188 73.794 C 189.503 72.923,114.361 72.927,112.757 73.799 M184.000 115.211 L 184.000 147.223 178.500 147.111 L 173.000 147.000 172.773 139.400 C 172.638 134.868,172.342 131.235,172.041 130.400 C 170.829 127.041,169.240 124.433,166.883 121.935 L 164.355 119.255 165.308 117.728 C 170.482 109.431,166.548 98.617,157.098 95.163 C 154.900 94.359,149.413 94.099,148.095 94.735 C 147.713 94.920,146.360 95.574,145.089 96.190 C 137.727 99.757,134.533 109.432,138.309 116.729 L 139.617 119.258 137.182 121.916 C 132.503 127.023,131.200 131.418,131.200 142.101 L 131.200 147.223 125.700 147.111 L 120.200 147.000 120.098 115.100 L 119.995 83.200 151.998 83.200 L 184.000 83.200 184.000 115.211 M205.200 94.000 L 205.200 98.800 218.000 98.800 L 230.800 98.800 230.800 94.000 L 230.800 89.200 218.000 89.200 L 205.200 89.200 205.200 94.000 M155.315 105.381 C 157.802 107.011,158.266 111.444,156.177 113.624 C 153.375 116.549,148.972 115.814,147.052 112.100 C 144.495 107.156,150.532 102.247,155.315 105.381 M205.200 115.200 L 205.200 120.000 220.600 120.000 L 236.000 120.000 236.000 115.200 L 236.000 110.400 220.600 110.400 L 205.200 110.400 205.200 115.200 M247.600 115.200 L 247.600 120.000 260.400 120.000 L 273.200 120.000 273.200 115.200 L 273.200 110.400 260.400 110.400 L 247.600 110.400 247.600 115.200 M154.440 125.628 C 160.908 127.664,163.192 131.729,163.189 141.200 C 163.187 147.856,164.372 147.232,151.972 147.107 L 141.400 147.000 141.279 141.000 C 141.141 134.100,141.653 131.817,143.937 129.148 C 146.507 126.146,151.146 124.591,154.440 125.628 M205.287 136.300 L 205.400 141.000 239.300 141.102 L 273.200 141.205 273.200 136.402 L 273.200 131.600 239.187 131.600 L 205.175 131.600 205.287 136.300 M136.800 178.400 L 136.800 183.200 157.400 183.200 L 178.000 183.200 178.000 178.400 L 178.000 173.600 157.400 173.600 L 136.800 173.600 136.800 178.400 M189.600 178.400 L 189.600 183.200 205.000 183.200 L 220.400 183.200 220.400 178.400 L 220.400 173.600 205.000 173.600 L 189.600 173.600 189.600 178.400 M231.867 173.867 C 231.720 174.013,231.600 176.173,231.600 178.667 L 231.600 183.200 257.600 183.200 L 283.600 183.200 283.600 178.400 L 283.600 173.600 257.867 173.600 C 243.713 173.600,232.013 173.720,231.867 173.867 M115.600 199.600 L 115.600 204.400 136.200 204.400 L 156.800 204.400 156.800 199.600 L 156.800 194.800 136.200 194.800 L 115.600 194.800 115.600 199.600 M168.400 199.600 L 168.400 204.400 210.200 204.400 L 252.000 204.400 252.000 199.600 L 252.000 194.800 210.200 194.800 L 168.400 194.800 168.400 199.600 M263.600 199.600 L 263.600 204.400 273.600 204.400 L 283.600 204.400 283.600 199.600 L 283.600 194.800 273.600 194.800 L 263.600 194.800 263.600 199.600 M115.600 220.800 L 115.600 225.600 125.800 225.600 L 136.000 225.600 136.000 220.800 L 136.000 216.000 125.800 216.000 L 115.600 216.000 115.600 220.800 M147.200 220.800 L 147.200 225.600 178.400 225.600 L 209.600 225.600 209.600 220.800 L 209.600 216.000 178.400 216.000 L 147.200 216.000 147.200 220.800 M221.200 220.800 L 221.200 225.600 252.400 225.600 L 283.600 225.600 283.600 220.800 L 283.600 216.000 252.400 216.000 L 221.200 216.000 221.200 220.800 M115.600 242.000 L 115.600 246.800 125.800 246.800 L 136.000 246.800 136.000 242.000 L 136.000 237.200 125.800 237.200 L 115.600 237.200 115.600 242.000 M147.200 242.000 L 147.200 246.800 178.400 246.800 L 209.600 246.800 209.600 242.000 L 209.600 237.200 178.400 237.200 L 147.200 237.200 147.200 242.000 M221.200 242.000 L 221.200 246.800 252.400 246.800 L 283.600 246.800 283.600 242.000 L 283.600 237.200 252.400 237.200 L 221.200 237.200 221.200 242.000 M115.600 263.000 L 115.600 268.006 138.900 267.903 L 162.200 267.800 162.200 263.000 L 162.200 258.200 138.900 258.097 L 115.600 257.994 115.600 263.000 M173.774 258.524 C 173.663 258.814,173.623 261.020,173.686 263.426 L 173.800 267.800 210.312 267.902 L 246.825 268.004 246.712 263.102 L 246.600 258.200 210.288 258.098 C 180.515 258.014,173.940 258.091,173.774 258.524 M115.688 284.093 L 115.800 289.000 125.800 289.000 L 135.800 289.000 135.800 284.200 L 135.800 279.400 125.688 279.293 L 115.575 279.186 115.688 284.093 M147.288 284.100 L 147.400 289.000 191.700 289.102 L 236.000 289.203 236.000 284.202 L 236.000 279.200 191.588 279.200 L 147.175 279.200 147.288 284.100 " stroke="none" fill="#1d1d1d" fill-rule="evenodd"></path><path id="path1" d="M180.400 0.264 C 178.750 0.348,177.130 0.526,176.800 0.659 C 176.470 0.792,175.570 0.947,174.800 1.005 C 170.794 1.304,167.714 1.698,167.000 2.003 C 166.560 2.191,165.300 2.446,164.200 2.570 C 161.542 2.869,157.100 3.737,156.600 4.055 C 156.380 4.195,155.075 4.437,153.700 4.594 C 152.325 4.750,151.200 5.041,151.200 5.239 C 151.200 5.438,150.570 5.600,149.800 5.600 C 149.030 5.600,148.400 5.762,148.400 5.961 C 148.400 6.159,147.320 6.447,146.000 6.600 C 144.680 6.753,143.600 7.041,143.600 7.239 C 143.600 7.438,143.161 7.600,142.624 7.600 C 142.087 7.600,141.549 7.759,141.429 7.954 C 141.308 8.148,140.402 8.429,139.414 8.577 C 138.427 8.725,137.514 9.016,137.386 9.223 C 137.258 9.430,136.713 9.600,136.176 9.600 C 135.639 9.600,135.200 9.780,135.200 10.000 C 135.200 10.220,134.844 10.400,134.408 10.400 C 133.635 10.400,130.848 11.319,129.549 12.003 C 129.191 12.191,128.246 12.468,127.449 12.617 C 126.652 12.767,126.000 13.049,126.000 13.245 C 126.000 13.440,125.728 13.600,125.395 13.600 C 125.062 13.600,124.477 13.774,124.095 13.986 C 123.151 14.510,120.130 15.785,118.300 16.431 C 117.475 16.722,116.800 17.105,116.800 17.280 C 116.800 17.456,116.451 17.600,116.024 17.600 C 115.597 17.600,115.134 17.783,114.996 18.007 C 114.858 18.230,114.577 18.309,114.372 18.183 C 114.168 18.056,114.000 18.143,114.000 18.376 C 114.000 18.609,113.640 18.800,113.200 18.800 C 112.760 18.800,112.400 18.966,112.400 19.168 C 112.400 19.371,111.860 19.655,111.200 19.800 C 110.540 19.945,110.000 20.229,110.000 20.432 C 110.000 20.634,109.730 20.800,109.400 20.800 C 109.070 20.800,108.800 20.960,108.800 21.155 C 108.800 21.351,108.170 21.629,107.400 21.774 C 106.630 21.918,106.000 22.208,106.000 22.418 C 106.000 22.628,105.730 22.800,105.400 22.800 C 105.070 22.800,104.800 22.960,104.800 23.157 C 104.800 23.353,104.347 23.627,103.793 23.766 C 103.239 23.905,101.808 24.644,100.612 25.409 C 99.417 26.174,98.250 26.800,98.019 26.800 C 97.789 26.800,97.600 26.968,97.600 27.173 C 97.600 27.378,97.203 27.672,96.719 27.826 C 96.234 27.980,95.591 28.352,95.290 28.653 C 94.989 28.954,94.486 29.200,94.171 29.200 C 93.857 29.200,93.600 29.359,93.600 29.553 C 93.600 29.748,93.285 30.012,92.900 30.142 C 92.188 30.381,90.764 31.222,90.400 31.618 C 90.017 32.035,85.107 35.200,84.843 35.200 C 84.696 35.200,84.317 35.560,84.000 36.000 C 83.683 36.440,83.238 36.803,83.012 36.806 C 82.785 36.810,81.991 37.350,81.246 38.006 C 80.501 38.663,79.658 39.200,79.373 39.200 C 79.087 39.200,78.740 39.560,78.600 40.000 C 78.460 40.440,78.133 40.803,77.873 40.806 C 77.613 40.810,76.770 41.348,76.000 42.002 C 73.732 43.929,73.642 44.000,73.461 44.000 C 73.271 44.000,70.893 46.077,68.080 48.700 C 67.077 49.635,66.100 50.400,65.908 50.400 C 65.474 50.400,50.400 65.522,50.400 65.958 C 50.400 66.133,49.410 67.298,48.200 68.547 C 46.990 69.796,46.000 70.952,46.000 71.114 C 46.000 71.277,45.550 71.748,45.000 72.161 C 44.450 72.574,44.000 73.065,44.000 73.253 C 44.000 73.440,43.651 74.000,43.224 74.497 C 42.798 74.994,42.078 75.833,41.624 76.361 C 41.171 76.890,40.800 77.553,40.800 77.834 C 40.800 78.116,40.449 78.457,40.020 78.594 C 39.592 78.730,39.120 79.221,38.973 79.687 C 38.825 80.152,38.276 80.961,37.752 81.484 C 37.228 82.008,36.800 82.683,36.800 82.985 C 36.800 83.287,36.657 83.593,36.481 83.667 C 35.964 83.883,32.800 88.486,32.800 89.022 C 32.800 89.293,32.545 89.612,32.234 89.732 C 31.686 89.942,30.688 91.469,30.163 92.900 C 30.022 93.285,29.748 93.600,29.553 93.600 C 29.359 93.600,29.200 93.857,29.200 94.171 C 29.200 94.486,28.975 94.988,28.700 95.288 C 28.098 95.945,27.293 97.178,26.930 98.000 C 26.784 98.330,26.069 99.542,25.341 100.693 C 24.614 101.844,23.905 103.239,23.766 103.793 C 23.627 104.347,23.353 104.800,23.157 104.800 C 22.960 104.800,22.800 105.070,22.800 105.400 C 22.800 105.730,22.620 106.000,22.400 106.000 C 22.180 106.000,22.000 106.214,22.000 106.476 C 22.000 107.094,19.492 112.159,19.100 112.333 C 18.935 112.407,18.800 112.812,18.800 113.233 C 18.800 113.655,18.628 114.000,18.418 114.000 C 18.208 114.000,17.918 114.630,17.774 115.400 C 17.629 116.170,17.351 116.800,17.155 116.800 C 16.960 116.800,16.800 117.057,16.800 117.372 C 16.800 117.687,16.249 119.172,15.575 120.672 C 14.901 122.172,14.199 123.760,14.015 124.200 C 13.832 124.640,13.393 125.657,13.041 126.460 C 12.688 127.264,12.400 128.299,12.400 128.760 C 12.400 129.222,12.220 129.600,12.000 129.600 C 11.780 129.600,11.600 129.949,11.600 130.376 C 11.600 130.803,11.430 131.258,11.223 131.386 C 11.016 131.514,10.725 132.424,10.578 133.409 C 10.430 134.394,10.150 135.200,9.955 135.200 C 9.760 135.200,9.600 135.639,9.600 136.176 C 9.600 136.713,9.430 137.258,9.223 137.386 C 9.016 137.514,8.725 138.427,8.577 139.414 C 8.429 140.402,8.148 141.308,7.954 141.429 C 7.759 141.549,7.600 142.051,7.600 142.544 C 7.600 143.037,7.415 143.625,7.189 143.851 C 6.964 144.076,6.668 145.192,6.534 146.331 C 6.399 147.469,6.153 148.400,5.988 148.400 C 5.823 148.400,5.584 148.985,5.458 149.700 C 5.054 151.991,4.148 156.181,3.923 156.800 C 3.538 157.858,2.737 162.136,2.538 164.200 C 2.431 165.300,2.191 166.560,2.004 167.000 C 1.816 167.440,1.559 168.970,1.432 170.400 C 1.304 171.830,1.106 173.540,0.992 174.200 C -0.016 180.004,-0.360 220.846,0.586 222.377 C 0.777 222.687,0.981 223.764,1.037 224.770 C 1.129 226.391,1.345 227.961,2.199 233.200 C 2.854 237.223,3.723 241.871,3.919 242.400 C 4.113 242.926,4.677 245.485,5.460 249.400 C 5.592 250.060,5.846 250.784,6.025 251.010 C 6.203 251.235,6.473 252.360,6.626 253.510 C 6.778 254.659,7.060 255.600,7.252 255.600 C 7.443 255.600,7.600 256.039,7.600 256.576 C 7.600 257.113,7.756 257.649,7.947 257.767 C 8.138 257.885,8.413 258.879,8.559 259.975 C 8.704 261.070,8.998 262.075,9.212 262.207 C 9.425 262.339,9.600 262.887,9.600 263.424 C 9.600 263.961,9.764 264.400,9.965 264.400 C 10.166 264.400,10.451 265.120,10.600 266.000 C 10.749 266.880,11.034 267.600,11.235 267.600 C 11.436 267.600,11.600 268.050,11.600 268.600 C 11.600 269.150,11.760 269.600,11.955 269.600 C 12.151 269.600,12.433 270.252,12.583 271.049 C 12.732 271.846,13.007 272.791,13.194 273.149 C 14.028 274.751,14.800 276.775,14.800 277.360 C 14.800 277.712,14.980 278.000,15.200 278.000 C 15.420 278.000,15.600 278.287,15.600 278.638 C 15.600 278.989,15.854 279.754,16.164 280.338 C 17.068 282.039,18.000 284.284,18.000 284.760 C 18.000 285.002,18.180 285.200,18.400 285.200 C 18.620 285.200,18.800 285.560,18.800 286.000 C 18.800 286.440,18.980 286.800,19.200 286.800 C 19.420 286.800,19.600 286.998,19.600 287.240 C 19.600 287.720,20.823 290.478,21.179 290.800 C 21.301 290.910,22.030 292.260,22.800 293.800 C 23.570 295.340,24.335 296.660,24.500 296.733 C 24.665 296.807,24.800 297.122,24.800 297.433 C 24.800 297.745,24.941 298.000,25.112 298.000 C 25.284 298.000,25.633 298.495,25.887 299.100 C 26.510 300.582,28.448 303.909,30.398 306.845 C 31.279 308.171,32.000 309.424,32.000 309.628 C 32.000 309.833,32.180 310.000,32.400 310.000 C 32.620 310.000,32.800 310.190,32.800 310.421 C 32.800 310.653,33.790 312.181,35.000 313.817 C 36.210 315.454,37.200 316.934,37.200 317.108 C 37.200 317.281,37.560 317.683,38.000 318.000 C 38.440 318.317,38.800 318.807,38.800 319.088 C 38.800 319.370,38.991 319.600,39.224 319.600 C 39.457 319.600,39.557 319.745,39.448 319.923 C 39.338 320.101,39.687 320.576,40.224 320.979 C 40.761 321.382,41.200 321.942,41.200 322.223 C 41.200 322.504,41.335 322.793,41.500 322.867 C 41.665 322.940,42.513 323.900,43.383 325.000 C 44.254 326.100,45.287 327.360,45.677 327.800 C 46.068 328.240,46.754 329.050,47.202 329.600 C 51.677 335.099,68.640 352.000,69.684 352.000 C 69.888 352.000,70.627 352.585,71.327 353.300 C 72.027 354.015,73.410 355.223,74.400 355.985 C 75.390 356.747,76.260 357.512,76.333 357.685 C 76.407 357.858,76.640 358.000,76.851 358.000 C 77.062 358.000,77.720 358.450,78.313 359.000 C 78.907 359.550,79.619 360.000,79.896 360.000 C 80.173 360.000,80.400 360.145,80.400 360.323 C 80.400 360.677,83.840 363.200,84.323 363.200 C 84.488 363.200,84.883 363.560,85.200 364.000 C 85.517 364.440,85.979 364.800,86.226 364.800 C 86.473 364.800,87.199 365.250,87.838 365.800 C 88.477 366.349,89.122 366.799,89.271 366.800 C 89.421 366.800,89.781 367.025,90.071 367.301 C 90.362 367.576,91.275 368.157,92.100 368.592 C 92.925 369.026,93.600 369.501,93.600 369.648 C 93.600 369.794,94.050 370.026,94.600 370.164 C 95.150 370.302,95.600 370.592,95.600 370.808 C 95.600 371.023,95.870 371.200,96.200 371.200 C 96.530 371.200,96.800 371.380,96.800 371.600 C 96.800 371.820,97.057 372.000,97.371 372.000 C 97.686 372.000,98.181 372.228,98.471 372.507 C 98.762 372.786,99.810 373.369,100.800 373.802 C 101.790 374.235,102.949 374.907,103.375 375.295 C 103.802 375.683,104.345 376.000,104.583 376.000 C 104.820 376.000,105.641 376.425,106.407 376.944 C 107.173 377.462,108.250 378.027,108.800 378.197 C 109.350 378.368,109.890 378.628,110.000 378.775 C 110.278 379.146,113.025 380.400,113.560 380.400 C 113.802 380.400,114.000 380.580,114.000 380.800 C 114.000 381.020,114.324 381.200,114.719 381.200 C 115.115 381.200,116.637 381.814,118.103 382.565 C 119.569 383.315,121.315 384.050,121.984 384.196 C 122.653 384.343,123.200 384.615,123.200 384.800 C 123.200 384.985,123.779 385.264,124.487 385.419 C 125.195 385.575,126.095 385.859,126.487 386.051 C 126.879 386.243,127.538 386.568,127.951 386.773 C 128.364 386.978,129.354 387.268,130.151 387.417 C 130.948 387.567,131.600 387.849,131.600 388.045 C 131.600 388.240,132.039 388.400,132.576 388.400 C 133.113 388.400,133.658 388.570,133.786 388.777 C 133.914 388.984,134.824 389.275,135.809 389.422 C 136.794 389.570,137.600 389.850,137.600 390.045 C 137.600 390.240,138.039 390.400,138.576 390.400 C 139.113 390.400,139.651 390.559,139.771 390.754 C 139.892 390.948,140.829 391.233,141.854 391.387 C 142.879 391.541,144.006 391.815,144.359 391.996 C 145.559 392.614,149.288 393.600,150.422 393.600 C 151.044 393.600,151.664 393.780,151.800 394.000 C 151.936 394.220,152.577 394.400,153.224 394.400 C 153.871 394.400,154.400 394.559,154.400 394.753 C 154.400 394.947,155.749 395.232,157.397 395.387 C 159.046 395.541,160.496 395.833,160.621 396.034 C 160.745 396.235,161.546 396.400,162.400 396.400 C 163.254 396.400,164.064 396.580,164.200 396.800 C 164.336 397.020,165.157 397.200,166.024 397.200 L 167.600 397.200 167.600 364.863 C 167.600 347.078,167.482 330.068,167.338 327.063 L 167.076 321.600 136.838 321.594 C 102.457 321.587,103.809 321.691,97.493 318.592 C 91.714 315.756,86.107 309.354,84.363 303.600 C 82.771 298.345,82.829 302.958,82.814 181.400 C 82.799 59.002,82.746 63.079,84.433 58.400 C 86.324 53.161,91.418 46.959,95.800 44.562 C 96.240 44.322,96.960 43.926,97.400 43.682 C 98.815 42.898,100.944 42.066,103.173 41.425 C 105.110 40.868,114.003 40.800,185.213 40.800 L 265.080 40.800 266.640 41.958 C 269.217 43.872,315.067 90.097,315.759 91.480 C 316.550 93.059,316.763 296.295,315.977 299.354 C 313.226 310.062,308.205 316.044,298.600 320.058 C 297.241 320.626,292.669 321.588,291.300 321.594 L 290.000 321.600 290.000 350.000 C 290.000 365.620,290.107 378.400,290.238 378.400 C 290.679 378.400,292.800 377.030,292.800 376.746 C 292.800 376.590,293.340 376.345,294.000 376.200 C 294.660 376.055,295.200 375.771,295.200 375.568 C 295.200 375.366,295.560 375.200,296.000 375.200 C 296.440 375.200,296.800 375.040,296.800 374.843 C 296.800 374.647,297.209 374.384,297.708 374.259 C 298.207 374.134,299.002 373.671,299.474 373.232 C 299.946 372.792,300.797 372.316,301.366 372.173 C 301.935 372.030,302.400 371.794,302.400 371.648 C 302.400 371.501,303.075 371.028,303.900 370.595 C 304.725 370.162,305.490 369.706,305.600 369.583 C 305.774 369.387,307.513 368.280,309.659 367.000 C 311.783 365.733,314.400 363.819,314.400 363.533 C 314.400 363.350,314.593 363.200,314.830 363.200 C 315.196 363.200,321.020 359.063,321.600 358.391 C 321.710 358.263,322.655 357.553,323.700 356.812 C 324.745 356.071,325.600 355.315,325.600 355.132 C 325.600 354.949,325.825 354.800,326.100 354.800 C 326.590 354.800,327.332 354.177,333.000 349.007 C 334.540 347.603,336.340 345.974,337.000 345.387 C 339.674 343.010,341.497 341.227,343.362 339.167 C 347.224 334.900,351.422 330.295,352.700 328.925 C 353.415 328.159,354.000 327.404,354.000 327.248 C 354.000 327.092,354.720 326.192,355.600 325.249 C 356.480 324.305,357.200 323.413,357.200 323.266 C 357.201 323.120,357.606 322.519,358.100 321.930 C 360.741 318.791,363.200 315.354,363.200 314.803 C 363.200 314.582,363.346 314.400,363.524 314.400 C 363.925 314.400,367.200 309.502,367.200 308.902 C 367.200 308.663,367.335 308.407,367.500 308.333 C 367.948 308.134,369.696 305.605,370.563 303.900 C 370.983 303.075,371.458 302.400,371.620 302.400 C 371.781 302.400,372.030 301.935,372.173 301.366 C 372.316 300.797,372.792 299.946,373.232 299.474 C 373.671 299.002,374.134 298.207,374.259 297.708 C 374.384 297.209,374.647 296.800,374.843 296.800 C 375.040 296.800,375.200 296.440,375.200 296.000 C 375.200 295.560,375.380 295.200,375.600 295.200 C 375.820 295.200,376.001 294.975,376.002 294.700 C 376.003 294.425,376.542 293.390,377.200 292.400 C 377.858 291.410,378.397 290.358,378.398 290.062 C 378.399 289.766,378.748 289.035,379.173 288.437 C 379.599 287.840,380.076 286.822,380.235 286.176 C 380.393 285.529,380.640 284.910,380.782 284.800 C 381.151 284.516,382.400 281.766,382.400 281.240 C 382.400 280.998,382.580 280.800,382.800 280.800 C 383.020 280.800,383.201 280.485,383.202 280.100 C 383.204 279.715,383.474 278.884,383.802 278.254 C 384.131 277.624,384.400 276.859,384.400 276.554 C 384.400 276.249,384.564 276.000,384.765 276.000 C 384.966 276.000,385.251 275.280,385.400 274.400 C 385.549 273.520,385.834 272.800,386.035 272.800 C 386.236 272.800,386.400 272.350,386.400 271.800 C 386.400 271.250,386.578 270.800,386.795 270.800 C 387.013 270.800,387.306 270.080,387.446 269.200 C 387.587 268.320,387.859 267.600,388.051 267.600 C 388.243 267.600,388.400 267.150,388.400 266.600 C 388.400 266.050,388.563 265.600,388.762 265.600 C 388.962 265.600,389.249 264.700,389.400 263.600 C 389.551 262.500,389.838 261.600,390.038 261.600 C 390.237 261.600,390.400 261.161,390.400 260.624 C 390.400 260.087,390.575 259.539,390.788 259.407 C 391.002 259.275,391.296 258.270,391.441 257.175 C 391.587 256.079,391.862 255.085,392.053 254.967 C 392.244 254.849,392.400 254.324,392.400 253.800 C 392.400 253.276,392.572 252.741,392.782 252.611 C 392.991 252.482,393.285 251.301,393.433 249.988 C 393.582 248.675,393.841 247.600,394.010 247.600 C 394.178 247.600,394.412 246.925,394.529 246.100 C 394.646 245.275,395.038 243.250,395.400 241.600 C 395.762 239.950,396.155 237.880,396.274 237.000 C 396.393 236.120,396.633 235.220,396.809 235.000 C 396.984 234.780,397.256 232.890,397.414 230.800 C 397.571 228.710,397.833 226.820,397.997 226.600 C 398.160 226.380,398.430 224.490,398.596 222.400 C 398.763 220.310,398.993 217.520,399.108 216.200 C 399.391 212.940,399.403 185.545,399.123 182.800 C 399.000 181.590,398.760 178.845,398.590 176.700 C 398.421 174.555,398.167 172.800,398.026 172.800 C 397.885 172.800,397.745 172.395,397.713 171.900 C 397.416 167.200,397.067 164.365,396.764 164.178 C 396.564 164.054,396.400 163.153,396.400 162.176 C 396.400 161.199,396.241 160.400,396.047 160.400 C 395.853 160.400,395.567 159.050,395.413 157.400 C 395.258 155.750,394.967 154.400,394.766 154.400 C 394.565 154.400,394.400 153.781,394.400 153.024 C 394.400 152.267,394.238 151.547,394.039 151.424 C 393.841 151.302,393.553 150.121,393.400 148.801 C 393.247 147.480,392.959 146.400,392.761 146.400 C 392.562 146.400,392.400 145.871,392.400 145.224 C 392.400 144.577,392.230 143.942,392.023 143.814 C 391.816 143.686,391.525 142.773,391.377 141.786 C 391.229 140.798,390.948 139.892,390.754 139.771 C 390.559 139.651,390.400 139.113,390.400 138.576 C 390.400 138.039,390.240 137.600,390.045 137.600 C 389.850 137.600,389.570 136.794,389.422 135.809 C 389.275 134.824,388.984 133.914,388.777 133.786 C 388.570 133.658,388.400 133.113,388.400 132.576 C 388.400 132.039,388.236 131.600,388.035 131.600 C 387.834 131.600,387.549 130.880,387.400 130.000 C 387.251 129.120,386.966 128.400,386.765 128.400 C 386.564 128.400,386.400 128.061,386.400 127.646 C 386.400 127.231,386.131 126.376,385.802 125.746 C 385.474 125.116,385.204 124.285,385.202 123.900 C 385.201 123.515,385.020 123.200,384.800 123.200 C 384.580 123.200,384.400 122.870,384.400 122.467 C 384.400 122.063,384.265 121.598,384.100 121.433 C 383.935 121.268,383.793 121.013,383.785 120.867 C 383.776 120.720,383.434 119.880,383.024 119.000 C 382.614 118.120,381.586 115.912,380.739 114.092 C 379.893 112.273,379.200 110.608,379.200 110.392 C 379.200 110.177,379.020 110.000,378.800 110.000 C 378.580 110.000,378.399 109.775,378.398 109.500 C 378.396 109.225,378.151 108.550,377.852 108.000 C 377.553 107.450,376.808 106.055,376.197 104.900 C 375.586 103.745,374.940 102.800,374.761 102.800 C 374.583 102.800,374.318 102.170,374.174 101.400 C 374.029 100.630,373.779 100.000,373.618 100.000 C 373.458 100.000,372.983 99.325,372.563 98.500 C 372.143 97.675,371.710 96.910,371.600 96.800 C 371.196 96.396,370.370 94.980,370.142 94.300 C 370.012 93.915,369.748 93.600,369.553 93.600 C 369.359 93.600,369.200 93.441,369.200 93.246 C 369.200 92.793,365.929 87.844,365.513 87.667 C 365.341 87.593,365.200 87.361,365.200 87.150 C 365.200 86.939,364.480 85.791,363.600 84.600 C 362.720 83.409,362.000 82.329,362.000 82.200 C 362.000 82.071,361.550 81.480,361.000 80.887 C 360.450 80.293,360.000 79.663,360.000 79.485 C 360.000 79.307,359.592 78.765,359.093 78.281 C 358.595 77.796,357.380 76.320,356.394 75.000 C 355.409 73.680,354.511 72.510,354.400 72.400 C 354.289 72.290,353.605 71.480,352.879 70.600 C 348.373 65.139,330.642 47.200,329.750 47.200 C 329.526 47.200,328.747 46.554,327.218 45.100 C 326.582 44.495,325.948 44.000,325.809 44.000 C 325.670 44.000,324.981 43.461,324.278 42.802 C 323.575 42.143,322.875 41.603,322.722 41.602 C 322.570 41.601,321.760 40.971,320.922 40.202 C 320.085 39.433,319.190 38.803,318.933 38.802 C 318.677 38.801,318.407 38.663,318.333 38.496 C 318.173 38.130,310.886 32.800,310.546 32.800 C 310.415 32.800,309.473 32.193,308.454 31.452 C 307.434 30.710,306.060 29.804,305.400 29.439 C 304.740 29.073,303.300 28.234,302.200 27.573 C 301.100 26.913,299.750 26.155,299.200 25.889 C 298.650 25.623,297.876 25.113,297.481 24.755 C 297.085 24.397,295.960 23.774,294.981 23.370 C 294.001 22.966,293.200 22.507,293.200 22.350 C 293.200 22.192,292.660 21.945,292.000 21.800 C 291.340 21.655,290.800 21.371,290.800 21.168 C 290.800 20.966,290.440 20.800,290.000 20.800 C 289.560 20.800,289.200 20.634,289.200 20.432 C 289.200 20.229,288.660 19.945,288.000 19.800 C 287.340 19.655,286.800 19.415,286.800 19.266 C 286.800 19.117,286.215 18.747,285.500 18.444 C 284.785 18.140,283.062 17.376,281.672 16.746 C 280.282 16.116,278.887 15.600,278.572 15.600 C 278.257 15.600,278.000 15.436,278.000 15.235 C 278.000 15.034,277.280 14.749,276.400 14.600 C 275.520 14.451,274.800 14.166,274.800 13.965 C 274.800 13.764,274.551 13.600,274.246 13.600 C 273.941 13.600,273.176 13.331,272.546 13.002 C 271.916 12.674,270.995 12.404,270.500 12.402 C 270.005 12.401,269.600 12.220,269.600 12.000 C 269.600 11.780,269.251 11.600,268.824 11.600 C 268.397 11.600,267.946 11.436,267.822 11.235 C 267.697 11.034,266.877 10.748,265.998 10.600 C 265.119 10.451,264.400 10.186,264.400 10.010 C 264.400 9.835,263.905 9.585,263.300 9.455 C 262.695 9.326,261.165 8.997,259.900 8.724 C 258.635 8.451,257.600 8.087,257.600 7.914 C 257.600 7.741,257.150 7.600,256.600 7.600 C 256.050 7.600,255.600 7.443,255.600 7.252 C 255.600 7.060,254.659 6.778,253.510 6.626 C 252.360 6.473,251.235 6.203,251.010 6.025 C 250.593 5.695,250.250 5.613,245.533 4.710 C 244.066 4.429,242.731 4.064,242.566 3.899 C 242.401 3.735,241.784 3.600,241.193 3.600 C 240.603 3.600,239.598 3.423,238.960 3.208 C 238.322 2.992,236.540 2.638,235.000 2.420 C 233.460 2.203,230.940 1.833,229.400 1.600 C 227.860 1.366,225.773 1.118,224.762 1.049 C 223.751 0.980,222.671 0.767,222.362 0.574 C 221.809 0.230,186.253 -0.033,180.400 0.264 M94.597 181.000 C 94.597 244.360,94.643 270.220,94.700 238.468 C 94.756 206.715,94.756 154.875,94.700 123.268 C 94.643 91.660,94.597 117.640,94.597 181.000 M132.900 72.700 C 143.405 72.759,160.595 72.759,171.100 72.700 C 181.605 72.641,173.010 72.592,152.000 72.592 C 130.990 72.592,122.395 72.641,132.900 72.700 M194.592 115.200 C 194.592 135.990,194.641 144.495,194.700 134.100 C 194.759 123.705,194.759 106.695,194.700 96.300 C 194.641 85.905,194.592 94.410,194.592 115.200 M282.200 88.000 L 268.600 88.216 282.300 88.308 C 291.228 88.368,296.000 88.261,296.000 88.000 C 296.000 87.780,295.955 87.641,295.900 87.692 C 295.845 87.743,289.680 87.881,282.200 88.000 M204.575 88.922 C 204.063 90.254,204.600 99.335,205.200 99.498 C 205.667 99.625,205.684 99.579,205.277 99.293 C 204.880 99.013,204.784 97.654,204.877 93.661 C 204.999 88.452,204.964 87.907,204.575 88.922 M150.387 105.108 C 145.082 107.635,146.535 114.800,152.352 114.800 C 156.801 114.800,158.768 108.232,155.049 105.795 C 153.904 105.045,151.318 104.664,150.387 105.108 M204.575 110.122 C 204.464 110.409,204.425 112.884,204.487 115.622 L 204.600 120.600 220.353 120.705 C 231.649 120.780,236.261 120.681,236.653 120.356 C 237.069 120.010,237.181 118.743,237.119 115.051 L 237.038 110.200 236.819 115.200 L 236.600 120.200 220.678 120.305 L 204.757 120.409 204.878 115.004 C 204.999 109.655,204.965 109.106,204.575 110.122 M273.598 114.919 L 273.797 120.200 273.911 115.233 C 273.974 112.501,273.885 110.124,273.713 109.951 C 273.541 109.779,273.489 112.014,273.598 114.919 M247.145 120.506 C 247.313 120.674,253.380 120.763,260.626 120.705 L 273.800 120.599 260.320 120.400 C 252.905 120.290,246.977 120.338,247.145 120.506 M149.427 126.756 C 149.306 126.951,148.753 127.225,148.198 127.365 C 144.029 128.411,142.400 132.011,142.400 140.178 L 142.400 146.400 152.200 146.400 L 162.000 146.400 161.978 140.500 C 161.948 132.701,159.935 128.264,156.037 127.408 C 155.362 127.260,154.706 126.972,154.581 126.769 C 154.289 126.296,149.719 126.284,149.427 126.756 M222.100 130.700 C 231.505 130.760,246.895 130.760,256.300 130.700 C 265.705 130.640,258.010 130.591,239.200 130.591 C 220.390 130.591,212.695 130.640,222.100 130.700 M204.555 136.200 C 204.556 139.060,204.620 140.178,204.697 138.683 C 204.774 137.189,204.774 134.849,204.696 133.483 C 204.618 132.118,204.555 133.340,204.555 136.200 M273.755 136.200 C 273.756 139.060,273.820 140.178,273.897 138.683 C 273.974 137.189,273.974 134.849,273.896 133.483 C 273.818 132.118,273.755 133.340,273.755 136.200 M222.100 141.900 C 231.505 141.960,246.895 141.960,256.300 141.900 C 265.705 141.840,258.010 141.791,239.200 141.791 C 220.390 141.791,212.695 141.840,222.100 141.900 M220.600 178.400 C 220.600 181.438,220.735 183.840,220.900 183.738 C 221.065 183.636,221.200 181.234,221.200 178.400 C 221.200 175.566,221.065 173.164,220.900 173.062 C 220.735 172.960,220.600 175.362,220.600 178.400 M231.067 173.067 C 230.698 173.436,230.729 183.509,231.100 183.739 C 231.265 183.842,231.345 181.574,231.277 178.701 C 231.183 174.726,231.279 173.396,231.677 173.144 C 231.968 172.959,232.008 172.810,231.767 172.806 C 231.528 172.803,231.213 172.920,231.067 173.067 M178.164 183.596 C 177.915 183.845,170.097 184.033,157.184 184.100 L 136.600 184.207 157.251 184.304 C 175.199 184.387,177.967 184.321,178.400 183.800 C 178.956 183.130,178.781 182.979,178.164 183.596 M283.763 183.597 C 283.511 183.849,273.965 184.033,257.583 184.100 L 231.800 184.206 257.651 184.303 C 280.222 184.388,283.565 184.324,284.000 183.800 C 284.556 183.130,284.380 182.980,283.763 183.597 M197.100 184.299 C 201.335 184.364,208.265 184.364,212.500 184.299 C 216.735 184.235,213.270 184.182,204.800 184.182 C 196.330 184.182,192.865 184.235,197.100 184.299 M252.200 199.600 C 252.200 202.638,252.335 205.040,252.500 204.938 C 252.665 204.836,252.800 202.434,252.800 199.600 C 252.800 196.766,252.665 194.364,252.500 194.262 C 252.335 194.160,252.200 196.562,252.200 199.600 M262.554 199.600 C 262.554 202.350,262.618 203.475,262.696 202.100 C 262.774 200.725,262.774 198.475,262.696 197.100 C 262.618 195.725,262.554 196.850,262.554 199.600 M136.554 220.800 C 136.554 223.550,136.618 224.675,136.696 223.300 C 136.774 221.925,136.774 219.675,136.696 218.300 C 136.618 216.925,136.554 218.050,136.554 220.800 M210.393 220.800 L 210.200 225.800 178.338 225.800 C 160.814 225.800,146.560 225.935,146.662 226.100 C 147.039 226.710,209.855 226.457,210.364 225.843 C 210.672 225.472,210.786 223.708,210.706 220.543 L 210.585 215.800 210.393 220.800 M115.146 226.107 C 115.315 226.276,120.122 226.365,125.827 226.306 L 136.200 226.199 125.519 226.000 C 119.645 225.890,114.977 225.938,115.146 226.107 M220.662 226.100 C 220.764 226.265,235.046 226.400,252.400 226.400 C 269.754 226.400,284.036 226.265,284.138 226.100 C 284.240 225.935,269.958 225.800,252.400 225.800 C 234.842 225.800,220.560 225.935,220.662 226.100 M125.800 236.390 L 136.200 236.600 136.200 241.800 L 136.200 247.000 125.538 247.000 C 119.674 247.000,114.960 247.135,115.062 247.300 C 115.392 247.834,135.779 247.661,136.320 247.120 C 136.984 246.456,136.984 237.144,136.320 236.480 C 135.967 236.127,133.139 236.024,125.620 236.090 L 115.400 236.180 125.800 236.390 M162.700 236.300 C 171.335 236.360,185.465 236.360,194.100 236.300 C 202.735 236.240,195.670 236.190,178.400 236.190 C 161.130 236.190,154.065 236.240,162.700 236.300 M236.700 236.300 C 245.335 236.360,259.465 236.360,268.100 236.300 C 276.735 236.240,269.670 236.190,252.400 236.190 C 235.130 236.190,228.065 236.240,236.700 236.300 M210.553 241.800 C 210.553 244.440,210.618 245.468,210.697 244.084 C 210.775 242.701,210.774 240.541,210.695 239.284 C 210.616 238.028,210.552 239.160,210.553 241.800 M146.662 247.300 C 146.764 247.465,161.046 247.600,178.400 247.600 C 195.754 247.600,210.036 247.465,210.138 247.300 C 210.240 247.135,195.958 247.000,178.400 247.000 C 160.842 247.000,146.560 247.135,146.662 247.300 M220.662 247.300 C 220.764 247.465,235.046 247.600,252.400 247.600 C 269.754 247.600,284.036 247.465,284.138 247.300 C 284.240 247.135,269.958 247.000,252.400 247.000 C 234.842 247.000,220.560 247.135,220.662 247.300 M115.062 257.500 C 114.960 257.665,125.614 257.800,138.738 257.800 L 162.600 257.800 162.600 263.000 L 162.600 268.200 139.000 268.405 L 115.400 268.610 138.820 268.705 C 156.610 268.777,162.355 268.685,162.720 268.320 C 163.040 268.000,163.200 266.231,163.200 263.000 C 163.200 259.769,163.040 258.000,162.720 257.680 C 162.176 257.136,115.396 256.959,115.062 257.500 M173.067 257.467 C 172.920 257.613,172.803 257.928,172.806 258.167 C 172.810 258.425,172.940 258.399,173.128 258.102 C 173.376 257.712,181.411 257.582,210.222 257.500 L 247.000 257.396 210.167 257.298 C 189.908 257.244,173.213 257.320,173.067 257.467 M247.193 263.000 L 247.000 268.200 210.200 268.403 L 173.400 268.606 210.051 268.703 C 240.946 268.785,246.775 268.713,247.164 268.244 C 247.473 267.871,247.586 266.057,247.506 262.744 L 247.386 257.800 247.193 263.000 M268.770 271.133 C 264.537 273.817,264.792 271.980,263.772 307.200 C 263.441 318.642,263.262 319.313,260.100 320.948 C 258.960 321.538,255.041 321.600,219.022 321.600 L 179.204 321.600 179.102 359.900 L 179.000 398.200 177.689 398.097 C 176.256 397.984,175.435 398.997,176.442 399.634 C 178.073 400.667,231.410 399.827,232.580 398.750 C 232.789 398.557,233.824 398.400,234.880 398.400 C 235.936 398.400,236.800 398.220,236.800 398.000 C 236.800 397.780,237.520 397.600,238.400 397.600 C 239.301 397.600,240.000 397.407,240.000 397.158 C 240.000 396.884,240.607 396.774,241.600 396.869 C 242.480 396.952,243.200 396.881,243.200 396.711 C 243.200 396.540,243.729 396.400,244.376 396.400 C 245.023 396.400,245.655 396.234,245.781 396.031 C 245.906 395.829,247.177 395.538,248.604 395.385 C 250.032 395.232,251.200 394.948,251.200 394.753 C 251.200 394.559,251.740 394.400,252.400 394.400 C 253.060 394.400,253.600 394.243,253.600 394.052 C 253.600 393.860,254.680 393.581,256.000 393.432 C 257.320 393.282,258.400 392.989,258.400 392.780 C 258.400 392.571,258.850 392.400,259.400 392.400 C 259.950 392.400,260.400 392.240,260.400 392.045 C 260.400 391.850,261.255 391.569,262.300 391.419 C 264.318 391.131,266.400 390.380,266.400 389.940 C 266.400 389.794,267.300 389.551,268.400 389.400 C 269.500 389.249,270.400 388.962,270.400 388.762 C 270.400 388.563,270.850 388.400,271.400 388.400 C 271.950 388.400,272.400 388.222,272.400 388.005 C 272.400 387.787,273.120 387.494,274.000 387.354 C 274.880 387.213,275.600 386.955,275.600 386.781 C 275.600 386.606,276.179 386.336,276.887 386.181 C 280.206 385.452,282.863 382.007,279.603 382.659 L 278.406 382.899 278.293 330.349 C 278.172 274.318,278.234 276.022,276.196 272.794 C 274.340 269.854,271.714 269.266,268.770 271.133 M136.554 284.000 C 136.554 286.750,136.618 287.875,136.696 286.500 C 136.774 285.125,136.774 282.875,136.696 281.500 C 136.618 280.125,136.554 281.250,136.554 284.000 M236.953 284.200 C 236.953 286.840,237.018 287.868,237.097 286.484 C 237.175 285.101,237.174 282.941,237.095 281.684 C 237.016 280.428,236.952 281.560,236.953 284.200 M115.336 289.694 C 115.591 289.856,120.300 289.955,125.800 289.916 C 136.577 289.838,135.339 289.672,122.736 289.504 C 118.412 289.447,115.082 289.532,115.336 289.694 M169.731 289.900 C 182.013 289.959,201.993 289.959,214.131 289.900 C 226.269 289.841,216.220 289.793,191.800 289.793 C 167.380 289.793,157.449 289.841,169.731 289.900 " stroke="none" fill="#ede9be" fill-rule="evenodd"></path><path id="path2" d="M105.398 53.141 C 101.238 54.511,98.155 57.173,96.152 61.127 L 95.000 63.400 95.000 181.000 L 95.000 298.600 96.100 300.910 C 98.198 305.318,101.777 308.194,106.600 309.349 C 109.174 309.965,115.138 310.010,180.600 309.910 L 251.800 309.800 252.000 292.000 L 252.200 274.200 253.737 271.082 C 256.147 266.191,261.434 261.249,266.000 259.619 C 266.770 259.344,267.832 258.912,268.360 258.660 C 269.742 257.998,277.588 258.064,279.038 258.749 C 288.721 263.322,290.000 267.314,290.000 292.967 C 290.000 309.053,290.041 310.042,290.700 309.845 C 291.085 309.730,292.300 309.418,293.400 309.152 C 298.622 307.887,302.671 303.565,304.161 297.668 C 304.738 295.382,304.800 285.647,304.800 197.568 L 304.800 100.000 283.261 100.000 C 259.457 100.000,260.215 100.078,258.197 97.431 L 257.200 96.124 257.200 74.262 L 257.200 52.400 182.300 52.441 C 113.889 52.479,107.227 52.539,105.398 53.141 M268.800 74.380 L 268.800 88.000 282.200 88.000 C 289.570 88.000,295.600 87.888,295.600 87.752 C 295.600 87.615,289.570 81.486,282.200 74.132 L 268.800 60.761 268.800 74.380 M191.068 73.003 C 194.989 74.641,194.832 72.778,194.708 116.072 L 194.600 153.800 193.641 155.145 C 191.806 157.717,193.792 157.600,151.907 157.600 C 109.254 157.600,111.946 157.783,110.326 154.769 C 109.624 153.463,109.595 151.615,109.695 114.532 L 109.800 75.664 110.800 74.595 C 112.871 72.381,111.224 72.468,151.913 72.433 C 184.658 72.404,189.816 72.479,191.068 73.003 M121.069 83.864 C 120.921 84.012,120.800 98.143,120.800 115.267 L 120.800 146.400 125.757 146.400 L 130.714 146.400 130.899 138.900 C 131.138 129.215,132.496 125.439,137.394 120.849 L 139.214 119.143 138.434 118.048 C 135.024 113.259,135.493 104.300,139.373 100.116 C 139.938 99.507,140.400 98.902,140.400 98.772 C 140.400 98.498,143.768 96.023,145.086 95.329 C 158.956 88.021,174.491 105.618,165.512 118.467 C 165.121 119.027,165.426 119.543,167.423 121.692 C 169.659 124.099,171.732 127.620,172.783 130.800 C 173.038 131.570,173.353 135.395,173.483 139.300 L 173.720 146.400 178.662 146.400 L 183.605 146.400 183.502 115.100 L 183.400 83.800 152.369 83.698 C 135.302 83.641,121.217 83.716,121.069 83.864 M231.400 94.000 L 231.400 99.400 218.000 99.400 L 204.600 99.400 204.487 94.422 C 204.425 91.684,204.465 89.207,204.577 88.917 C 204.740 88.492,207.364 88.410,218.090 88.495 L 231.400 88.600 231.400 94.000 M236.957 110.233 C 237.471 111.572,237.222 119.884,236.653 120.356 C 236.261 120.681,231.649 120.780,220.353 120.705 L 204.600 120.600 204.487 115.622 C 204.425 112.884,204.464 110.409,204.575 110.122 C 204.906 109.257,236.624 109.366,236.957 110.233 M273.916 114.400 C 273.980 116.930,273.931 119.407,273.807 119.905 L 273.582 120.811 260.291 120.705 L 247.000 120.600 246.889 115.095 L 246.777 109.589 260.289 109.695 L 273.800 109.800 273.916 114.400 M273.520 130.880 C 273.840 131.200,274.000 132.969,274.000 136.200 C 274.000 139.431,273.840 141.200,273.520 141.520 C 272.825 142.215,205.575 142.215,204.880 141.520 C 204.560 141.200,204.400 139.431,204.400 136.200 C 204.400 132.969,204.560 131.200,204.880 130.880 C 205.575 130.185,272.825 130.185,273.520 130.880 M178.712 178.144 C 178.788 181.596,178.673 183.471,178.363 183.844 C 177.884 184.422,138.100 184.720,136.633 184.157 C 136.098 183.952,136.000 183.055,136.000 178.354 L 136.000 172.793 157.300 172.896 L 178.600 173.000 178.712 178.144 M221.113 178.196 C 221.211 182.733,221.138 183.456,220.536 183.896 C 219.812 184.426,190.768 184.669,189.433 184.157 C 188.773 183.904,188.440 173.694,189.071 173.062 C 189.220 172.913,196.465 172.838,205.171 172.895 L 221.000 173.000 221.113 178.196 M284.312 178.144 C 284.388 181.596,284.273 183.471,283.963 183.844 C 283.380 184.547,232.877 184.684,231.574 183.986 C 230.788 183.565,230.337 173.797,231.069 173.064 C 231.218 172.916,243.233 172.841,257.769 172.897 L 284.200 173.000 284.312 178.144 M157.400 199.600 L 157.400 205.000 136.200 205.000 L 115.000 205.000 114.889 199.496 L 114.777 193.993 136.089 194.096 L 157.400 194.200 157.400 199.600 M252.600 199.600 L 252.600 205.000 210.200 205.000 L 167.800 205.000 167.689 199.498 L 167.577 193.996 210.089 194.098 L 252.600 194.200 252.600 199.600 M284.200 199.600 L 284.200 205.000 273.628 205.107 C 261.284 205.231,262.414 205.773,262.406 199.733 C 262.397 193.327,261.128 193.969,273.545 194.094 L 284.200 194.200 284.200 199.600 M136.557 215.833 C 137.073 217.177,136.821 225.484,136.251 225.958 C 135.863 226.279,132.652 226.382,125.351 226.307 L 115.000 226.200 114.889 220.700 L 114.777 215.200 125.546 215.200 C 134.996 215.200,136.344 215.277,136.557 215.833 M210.557 215.833 C 211.069 217.167,210.822 225.484,210.256 225.953 C 209.860 226.282,201.137 226.377,178.156 226.302 L 146.600 226.200 146.487 221.222 C 146.425 218.484,146.464 216.009,146.575 215.722 C 146.908 214.852,210.223 214.962,210.557 215.833 M284.200 220.800 L 284.200 226.200 252.400 226.200 L 220.600 226.200 220.489 220.698 L 220.377 215.195 252.289 215.298 L 284.200 215.400 284.200 220.800 M136.320 236.480 C 137.041 237.201,136.980 246.552,136.251 247.158 C 135.863 247.479,132.652 247.582,125.351 247.507 L 115.000 247.400 114.888 242.031 C 114.804 238.004,114.904 236.581,115.288 236.337 C 116.152 235.789,135.762 235.922,136.320 236.480 M210.171 236.629 C 210.983 237.440,211.088 245.855,210.300 246.927 C 209.836 247.559,207.553 247.600,178.200 247.504 L 146.600 247.400 146.488 242.031 C 146.404 238.004,146.504 236.581,146.888 236.337 C 147.970 235.651,209.477 235.934,210.171 236.629 M283.912 236.337 C 284.296 236.581,284.396 238.004,284.312 242.031 L 284.200 247.400 252.400 247.400 L 220.600 247.400 220.488 242.031 C 220.404 238.004,220.504 236.581,220.888 236.337 C 221.170 236.158,235.350 236.012,252.400 236.012 C 269.450 236.012,283.630 236.158,283.912 236.337 M162.720 257.680 C 163.040 258.000,163.200 259.769,163.200 263.000 C 163.200 266.231,163.040 268.000,162.720 268.320 C 162.211 268.829,116.734 269.057,115.433 268.557 C 114.775 268.305,114.438 258.095,115.067 257.467 C 115.585 256.948,162.197 257.157,162.720 257.680 M247.120 257.680 C 247.440 258.000,247.600 259.769,247.600 263.000 C 247.600 266.231,247.440 268.000,247.120 268.320 C 246.611 268.829,174.743 269.060,173.433 268.557 C 172.775 268.305,172.438 258.095,173.067 257.467 C 173.587 256.946,246.596 257.156,247.120 257.680 M136.320 278.880 C 137.098 279.658,136.971 288.571,136.171 289.371 C 135.527 290.016,117.005 290.360,115.433 289.757 C 114.775 289.505,114.438 279.295,115.067 278.667 C 115.577 278.157,135.800 278.360,136.320 278.880 M236.786 279.174 C 237.487 280.484,237.316 288.627,236.571 289.371 C 235.801 290.142,148.603 290.351,147.174 289.586 C 146.389 289.166,145.936 279.398,146.667 278.667 C 147.445 277.889,236.366 278.389,236.786 279.174 M240.705 397.083 C 241.202 397.179,241.922 397.175,242.305 397.075 C 242.687 396.975,242.280 396.896,241.400 396.901 C 240.520 396.905,240.207 396.987,240.705 397.083 " stroke="none" fill="#e9ecec" fill-rule="evenodd"></path><path id="path3" d="M145.068 52.300 C 165.566 52.357,199.226 52.357,219.868 52.300 C 240.511 52.243,223.740 52.196,182.600 52.196 C 141.460 52.196,124.571 52.243,145.068 52.300 M98.727 56.700 C 98.164 57.305,97.397 58.340,97.021 59.000 C 96.345 60.189,96.346 60.191,97.070 59.209 C 97.471 58.665,98.314 57.630,98.941 56.909 C 100.325 55.323,100.158 55.160,98.727 56.700 M282.403 74.200 C 289.991 81.900,296.282 88.148,296.383 88.084 C 296.484 88.020,290.275 81.720,282.586 74.084 L 268.606 60.200 282.403 74.200 M132.930 73.100 C 143.672 73.159,161.132 73.159,171.730 73.100 C 182.329 73.041,173.540 72.992,152.200 72.992 C 130.860 72.992,122.189 73.041,132.930 73.100 M109.792 115.200 C 109.792 136.210,109.841 144.805,109.900 134.300 C 109.959 123.795,109.959 106.605,109.900 96.100 C 109.841 85.595,109.792 94.190,109.792 115.200 M120.898 83.531 C 120.500 83.784,120.416 90.390,120.498 115.225 L 120.600 146.600 125.701 146.619 L 130.801 146.637 125.798 146.507 L 120.795 146.376 120.898 115.088 L 121.000 83.800 152.262 83.800 C 169.456 83.800,183.440 83.665,183.338 83.500 C 183.088 83.096,121.535 83.126,120.898 83.531 M204.975 88.922 C 204.864 89.209,204.831 91.684,204.901 94.422 L 205.027 99.400 205.114 94.094 L 205.200 88.789 218.100 88.894 L 231.000 89.000 231.000 94.000 L 231.000 99.000 218.200 99.208 L 205.400 99.417 218.020 99.508 C 232.934 99.617,231.600 100.158,231.600 94.000 C 231.600 90.924,231.438 89.198,231.120 88.880 C 230.394 88.154,205.254 88.195,204.975 88.922 M151.305 93.887 C 151.914 93.979,152.814 93.977,153.305 93.882 C 153.797 93.787,153.300 93.711,152.200 93.714 C 151.100 93.717,150.697 93.795,151.305 93.887 M163.600 99.000 C 164.346 99.770,165.047 100.400,165.157 100.400 C 165.267 100.400,164.746 99.770,164.000 99.000 C 163.254 98.230,162.553 97.600,162.443 97.600 C 162.333 97.600,162.854 98.230,163.600 99.000 M272.472 99.900 C 278.341 99.962,288.061 99.962,294.072 99.900 C 300.082 99.838,295.280 99.787,283.400 99.786 C 271.520 99.786,266.602 99.837,272.472 99.900 M136.124 109.800 C 136.126 111.120,136.201 111.612,136.290 110.893 C 136.379 110.174,136.377 109.094,136.286 108.493 C 136.195 107.892,136.122 108.480,136.124 109.800 M205.071 109.862 C 204.699 110.235,204.726 120.400,205.100 120.401 C 205.265 120.401,205.345 118.061,205.278 115.201 L 205.156 110.000 220.800 110.000 L 236.444 110.000 236.322 115.181 C 236.255 118.031,236.341 120.221,236.513 120.049 C 236.685 119.876,236.775 117.499,236.713 114.767 L 236.600 109.800 220.971 109.695 C 212.375 109.638,205.220 109.713,205.071 109.862 M247.067 109.867 C 246.698 110.236,246.729 119.909,247.100 120.139 C 247.265 120.241,247.400 118.047,247.400 115.262 L 247.400 110.200 260.462 110.200 C 267.646 110.200,273.440 110.065,273.338 109.900 C 273.109 109.529,247.437 109.497,247.067 109.867 M136.581 121.700 L 135.000 123.400 136.700 121.819 C 138.281 120.348,138.584 120.000,138.281 120.000 C 138.216 120.000,137.451 120.765,136.581 121.700 M204.800 136.200 C 204.800 139.170,204.935 141.600,205.100 141.601 C 205.265 141.601,205.345 139.259,205.278 136.396 L 205.155 131.191 239.378 131.296 C 258.200 131.353,273.600 131.265,273.600 131.100 C 273.600 130.935,258.120 130.800,239.200 130.800 L 204.800 130.800 204.800 136.200 M130.901 134.600 C 130.905 135.480,130.987 135.793,131.083 135.295 C 131.179 134.798,131.175 134.078,131.075 133.695 C 130.975 133.313,130.896 133.720,130.901 134.600 M173.382 141.099 L 173.400 146.600 178.501 146.619 L 183.601 146.637 178.612 146.507 L 173.622 146.376 173.494 140.988 L 173.365 135.599 173.382 141.099 M194.000 153.111 C 194.000 153.502,193.716 154.267,193.368 154.811 L 192.736 155.800 193.568 154.856 C 194.309 154.015,194.724 152.400,194.200 152.400 C 194.090 152.400,194.000 152.720,194.000 153.111 M110.336 154.604 C 110.753 155.464,111.821 156.492,112.800 156.974 C 113.130 157.136,112.970 156.919,112.444 156.491 C 111.918 156.062,111.141 155.282,110.717 154.756 C 110.132 154.030,110.040 153.994,110.336 154.604 M133.100 157.500 C 143.495 157.559,160.505 157.559,170.900 157.500 C 181.295 157.441,172.790 157.392,152.000 157.392 C 131.210 157.392,122.705 157.441,133.100 157.500 M136.488 173.137 C 136.104 173.381,136.003 174.765,136.088 178.631 L 136.200 183.800 157.200 183.805 L 178.200 183.811 157.288 183.702 L 136.376 183.593 136.488 178.496 L 136.600 173.400 157.400 173.400 L 178.200 173.400 178.419 178.400 L 178.638 183.400 178.719 178.580 C 178.775 175.267,178.650 173.610,178.320 173.280 C 177.759 172.719,137.363 172.582,136.488 173.137 M189.288 173.135 C 188.904 173.380,188.803 174.766,188.888 178.631 L 189.000 183.800 204.575 183.905 C 213.142 183.962,220.288 183.872,220.456 183.705 C 220.623 183.537,213.654 183.449,204.968 183.509 L 189.176 183.618 189.288 178.509 L 189.400 173.400 204.773 173.295 C 216.791 173.213,220.225 173.301,220.504 173.695 C 220.771 174.073,220.820 174.049,220.697 173.600 C 220.514 172.927,190.312 172.480,189.288 173.135 M231.688 173.137 C 231.304 173.381,231.203 174.765,231.288 178.631 L 231.400 183.800 257.400 183.804 L 283.400 183.809 257.488 183.701 L 231.576 183.594 231.688 178.497 L 231.800 173.400 257.800 173.400 L 283.800 173.400 284.019 178.400 L 284.238 183.400 284.319 178.580 C 284.375 175.267,284.250 173.610,283.920 173.280 C 283.359 172.719,232.566 172.580,231.688 173.137 M115.280 194.480 C 114.618 195.142,114.618 204.058,115.280 204.720 C 115.643 205.083,120.768 205.177,136.380 205.105 L 157.000 205.011 136.200 204.805 L 115.400 204.600 115.400 199.600 L 115.400 194.600 136.200 194.600 L 157.000 194.600 157.219 199.600 L 157.438 204.600 157.519 199.933 C 157.564 197.366,157.491 194.981,157.357 194.633 C 157.038 193.802,116.107 193.653,115.280 194.480 M168.080 194.480 C 167.418 195.142,167.418 204.058,168.080 204.720 C 168.625 205.265,251.802 205.443,252.138 204.900 C 252.240 204.735,233.396 204.600,210.262 204.600 L 168.200 204.600 168.200 199.600 L 168.200 194.600 210.262 194.600 C 233.396 194.600,252.240 194.465,252.138 194.300 C 251.802 193.757,168.625 193.935,168.080 194.480 M263.067 194.267 C 262.920 194.413,262.837 196.888,262.882 199.767 L 262.963 205.000 263.182 199.800 L 263.400 194.600 273.600 194.600 L 283.800 194.600 283.800 199.600 L 283.800 204.600 273.600 204.810 L 263.400 205.021 273.420 205.110 C 285.370 205.217,284.400 205.704,284.400 199.600 C 284.400 196.524,284.238 194.798,283.920 194.480 C 283.400 193.960,263.576 193.757,263.067 194.267 M115.073 215.460 C 114.700 215.833,114.725 225.506,115.100 225.739 C 115.265 225.841,115.400 223.647,115.400 220.862 L 115.400 215.800 125.688 215.693 L 135.977 215.587 136.106 220.693 L 136.235 225.800 136.217 220.600 L 136.200 215.400 125.773 215.294 C 120.038 215.235,115.223 215.310,115.073 215.460 M146.644 215.830 C 146.293 216.745,146.343 225.517,146.700 225.739 C 146.865 225.841,147.000 223.647,147.000 220.862 L 147.000 215.800 178.522 215.698 L 210.045 215.595 209.922 220.779 C 209.855 223.630,209.941 225.821,210.113 225.649 C 210.285 225.476,210.375 223.099,210.313 220.367 L 210.200 215.400 178.544 215.298 C 149.936 215.205,146.864 215.256,146.644 215.830 M220.667 215.467 C 220.298 215.836,220.329 225.509,220.700 225.739 C 220.865 225.841,221.000 223.647,221.000 220.862 L 221.000 215.800 252.400 215.800 L 283.800 215.800 283.800 220.862 C 283.800 223.647,283.935 225.841,284.100 225.739 C 284.457 225.518,284.507 216.745,284.157 215.833 C 283.904 215.172,221.322 214.812,220.667 215.467 M115.073 236.660 C 114.700 237.033,114.725 246.706,115.100 246.939 C 115.265 247.042,115.345 244.802,115.278 241.963 L 115.156 236.800 125.600 236.800 L 136.044 236.800 135.922 241.981 C 135.855 244.831,135.941 247.021,136.113 246.849 C 136.285 246.676,136.375 244.299,136.313 241.567 L 136.200 236.600 125.773 236.494 C 120.038 236.435,115.223 236.510,115.073 236.660 M146.592 237.298 C 146.097 239.287,146.571 246.927,147.200 247.098 C 147.658 247.222,147.678 247.175,147.287 246.899 C 146.907 246.630,146.803 245.300,146.887 241.768 L 147.000 237.000 178.522 236.898 L 210.045 236.795 209.922 241.979 C 209.855 244.830,209.941 247.021,210.113 246.849 C 210.285 246.676,210.375 244.299,210.313 241.567 L 210.200 236.600 178.508 236.498 L 146.816 236.395 146.592 237.298 M220.667 236.667 C 220.298 237.036,220.329 246.709,220.700 246.939 C 220.865 247.041,221.000 244.847,221.000 242.062 L 221.000 237.000 252.600 236.796 L 284.200 236.593 252.567 236.496 C 235.168 236.443,220.813 236.520,220.667 236.667 M283.998 242.081 C 283.889 244.876,283.941 247.021,284.113 246.848 C 284.286 246.675,284.375 244.388,284.311 241.767 L 284.196 237.000 283.998 242.081 M114.975 258.120 C 114.864 258.410,114.824 260.796,114.887 263.423 L 115.000 268.200 138.800 268.200 L 162.600 268.200 162.600 263.000 L 162.600 257.800 138.889 257.697 C 119.580 257.613,115.140 257.691,114.975 258.120 M173.043 258.233 C 172.909 258.581,172.800 260.726,172.800 263.000 C 172.800 265.274,172.909 267.419,173.043 267.767 C 173.304 268.449,246.519 268.779,246.938 268.100 C 247.040 267.935,230.536 267.800,210.262 267.800 L 173.400 267.800 173.400 263.000 L 173.400 258.200 210.300 258.200 C 230.595 258.200,247.200 258.065,247.200 257.900 C 247.200 257.220,173.304 257.552,173.043 258.233 M162.400 263.000 L 162.400 268.000 138.800 268.000 L 115.200 268.000 115.200 263.000 L 115.200 258.000 138.800 258.000 L 162.400 258.000 162.400 263.000 M272.707 258.290 C 273.426 258.379,274.506 258.377,275.107 258.286 C 275.708 258.195,275.120 258.122,273.800 258.124 C 272.480 258.126,271.988 258.201,272.707 258.290 M258.175 264.900 L 257.000 266.200 258.398 265.000 C 259.167 264.340,259.872 263.755,259.965 263.700 C 260.057 263.645,259.957 263.600,259.742 263.600 C 259.526 263.600,258.821 264.185,258.175 264.900 M288.406 270.233 C 288.409 270.655,288.595 271.270,288.818 271.600 C 289.115 272.038,289.152 271.876,288.956 271.000 C 288.627 269.529,288.398 269.210,288.406 270.233 M252.222 275.822 C 252.072 276.625,252.028 277.362,252.126 277.460 C 252.224 277.557,252.427 276.981,252.578 276.178 C 252.728 275.375,252.772 274.638,252.674 274.540 C 252.576 274.443,252.373 275.019,252.222 275.822 M289.783 292.800 C 289.783 302.150,289.836 305.975,289.900 301.300 C 289.964 296.625,289.964 288.975,289.900 284.300 C 289.836 279.625,289.783 283.450,289.783 292.800 M115.280 278.880 C 114.948 279.212,114.825 280.911,114.882 284.380 L 114.963 289.400 115.182 284.200 L 115.400 279.000 125.600 279.000 L 135.800 279.000 135.912 284.093 L 136.024 289.186 125.712 289.304 L 115.400 289.421 125.800 289.411 L 136.200 289.400 136.312 284.231 C 136.397 280.365,136.296 278.981,135.912 278.737 C 135.049 278.189,115.838 278.322,115.280 278.880 M146.880 278.880 C 146.166 279.594,146.221 288.553,146.943 289.153 C 147.340 289.482,159.450 289.576,192.043 289.502 L 236.600 289.400 236.713 284.456 C 236.788 281.153,236.672 279.328,236.364 278.956 C 235.728 278.191,147.644 278.116,146.880 278.880 M236.312 284.102 L 236.424 289.203 191.712 289.102 L 147.000 289.000 146.886 284.424 C 146.824 281.908,146.863 279.612,146.974 279.323 C 147.140 278.891,155.194 278.815,191.688 278.898 L 236.200 279.000 236.312 284.102 M94.406 296.833 C 94.409 297.365,94.589 298.070,94.806 298.400 C 95.082 298.822,95.123 298.585,94.942 297.600 C 94.625 295.875,94.398 295.549,94.406 296.833 M299.200 306.082 C 297.990 307.211,297.360 307.938,297.800 307.699 C 298.569 307.280,301.953 303.984,301.581 304.015 C 301.482 304.024,300.410 304.954,299.200 306.082 " stroke="none" fill="#9aa1a0" fill-rule="evenodd"></path><path id="path4" d="M146.300 41.100 C 167.915 41.157,203.285 41.157,224.900 41.100 C 246.515 41.043,228.830 40.996,185.600 40.996 C 142.370 40.996,124.685 41.043,146.300 41.100 M94.197 181.200 C 94.197 244.010,94.243 269.705,94.300 238.300 C 94.356 206.895,94.356 155.505,94.300 124.100 C 94.243 92.695,94.197 118.390,94.197 181.200 M110.192 115.000 C 110.192 136.120,110.241 144.701,110.300 134.070 C 110.359 123.438,110.359 106.158,110.300 95.670 C 110.241 85.181,110.192 93.880,110.192 115.000 M268.745 88.505 C 268.913 88.673,275.159 88.763,282.625 88.705 L 296.200 88.599 282.320 88.400 C 274.685 88.290,268.577 88.337,268.745 88.505 M218.200 89.106 L 230.800 89.211 230.800 94.000 L 230.800 98.789 218.300 98.903 L 205.800 99.017 218.400 99.008 L 231.000 99.000 231.000 94.000 L 231.000 89.000 218.300 89.000 L 205.600 89.000 218.200 89.106 M304.997 198.600 C 304.997 253.160,305.043 275.421,305.100 248.068 C 305.157 220.715,305.157 176.075,305.100 148.868 C 305.043 121.661,304.997 144.040,304.997 198.600 M136.501 109.800 C 136.505 110.680,136.587 110.993,136.683 110.495 C 136.779 109.998,136.775 109.278,136.675 108.895 C 136.575 108.513,136.496 108.920,136.501 109.800 M146.501 109.800 C 146.505 110.680,146.587 110.993,146.683 110.495 C 146.779 109.998,146.775 109.278,146.675 108.895 C 146.575 108.513,146.496 108.920,146.501 109.800 M220.788 110.298 L 235.975 110.409 236.106 115.105 L 236.237 119.800 236.218 115.000 L 236.200 110.200 220.900 110.193 L 205.600 110.186 220.788 110.298 M247.374 110.524 C 247.263 110.813,247.230 113.108,247.301 115.624 L 247.429 120.200 247.514 115.306 L 247.600 110.411 260.500 110.300 L 273.400 110.189 260.487 110.094 C 250.138 110.019,247.535 110.104,247.374 110.524 M155.829 113.562 L 154.658 115.000 156.009 113.713 C 156.751 113.005,157.278 112.358,157.179 112.275 C 157.081 112.192,156.473 112.771,155.829 113.562 M150.315 125.528 C 149.938 125.678,150.786 125.800,152.200 125.800 C 153.614 125.800,154.462 125.678,154.085 125.528 C 153.708 125.379,152.860 125.256,152.200 125.256 C 151.540 125.256,150.692 125.379,150.315 125.528 M146.741 126.806 C 145.143 127.650,142.598 130.398,142.277 131.626 C 142.166 132.052,142.238 132.300,142.437 132.177 C 142.637 132.054,142.800 131.764,142.800 131.534 C 142.800 130.565,145.368 127.988,147.287 127.031 C 148.426 126.464,149.097 126.008,148.779 126.018 C 148.460 126.027,147.543 126.382,146.741 126.806 M158.284 127.821 C 158.990 128.377,160.039 129.410,160.616 130.116 C 161.193 130.822,161.480 131.024,161.253 130.566 C 160.811 129.668,157.792 126.797,157.299 126.804 C 157.134 126.807,157.578 127.264,158.284 127.821 M222.100 131.500 C 231.505 131.560,246.895 131.560,256.300 131.500 C 265.705 131.440,258.010 131.391,239.200 131.391 C 220.390 131.391,212.695 131.440,222.100 131.500 M131.301 134.200 C 131.305 135.080,131.387 135.393,131.483 134.895 C 131.579 134.398,131.575 133.678,131.475 133.295 C 131.375 132.913,131.296 133.320,131.301 134.200 M141.393 134.100 C 141.271 134.595,141.222 137.700,141.285 141.000 L 141.400 147.000 151.972 147.107 C 160.164 147.190,162.617 147.099,162.866 146.707 C 163.257 146.092,163.234 136.203,162.839 134.800 C 162.684 134.250,162.567 136.680,162.578 140.200 L 162.600 146.600 152.200 146.600 L 141.800 146.600 141.800 139.900 C 141.800 132.994,141.770 132.572,141.393 134.100 M132.700 157.100 C 143.315 157.159,160.685 157.159,171.300 157.100 C 181.915 157.041,173.230 156.992,152.000 156.992 C 130.770 156.992,122.085 157.041,132.700 157.100 M136.581 178.499 L 136.600 183.400 157.400 183.400 L 178.200 183.400 178.220 178.699 L 178.240 173.999 178.107 178.599 L 177.975 183.200 157.400 183.200 L 136.825 183.200 136.693 178.399 L 136.561 173.599 136.581 178.499 M189.381 178.499 L 189.400 183.400 204.800 183.407 L 220.200 183.414 204.912 183.302 L 189.625 183.191 189.493 178.395 L 189.361 173.599 189.381 178.499 M283.686 178.297 L 283.600 183.194 257.500 183.300 L 231.400 183.406 257.513 183.503 C 278.752 183.582,283.663 183.502,283.826 183.076 C 283.937 182.787,283.970 180.492,283.899 177.976 L 283.771 173.400 283.686 178.297 M136.500 194.698 L 156.800 194.807 156.800 199.604 L 156.800 204.400 136.213 204.400 L 115.625 204.400 115.493 199.799 L 115.360 195.199 115.380 199.899 L 115.400 204.600 136.200 204.600 L 157.000 204.600 157.000 199.600 L 157.000 194.600 136.600 194.595 L 116.200 194.589 136.500 194.698 M189.500 194.700 C 200.995 194.759,219.805 194.759,231.300 194.700 C 242.795 194.641,233.390 194.593,210.400 194.593 C 187.410 194.593,178.005 194.641,189.500 194.700 M263.376 194.918 C 263.264 195.210,263.224 197.508,263.286 200.024 L 263.400 204.600 273.600 204.600 L 283.800 204.600 283.800 199.600 L 283.800 194.600 273.690 194.493 C 265.578 194.407,263.540 194.491,263.376 194.918 M283.600 199.600 L 283.600 204.400 273.600 204.400 L 263.600 204.400 263.600 199.600 L 263.600 194.800 273.600 194.800 L 283.600 194.800 283.600 199.600 M168.180 199.899 L 168.200 204.600 210.100 204.603 L 252.000 204.606 210.213 204.501 L 168.425 204.396 168.293 199.797 L 168.160 195.199 168.180 199.899 M115.374 216.124 C 115.263 216.413,115.230 218.708,115.301 221.224 L 115.429 225.800 115.514 220.907 L 115.600 216.014 125.700 215.900 L 135.800 215.786 125.687 215.693 C 117.649 215.619,115.534 215.708,115.374 216.124 M178.488 215.899 L 209.575 216.005 209.708 220.902 L 209.840 225.800 209.820 220.800 L 209.800 215.800 178.600 215.796 L 147.400 215.793 178.488 215.899 M220.975 216.122 C 220.863 216.412,220.830 218.708,220.901 221.224 L 221.029 225.800 221.114 220.900 L 221.200 216.000 252.388 216.000 L 283.575 216.000 283.708 220.900 L 283.840 225.800 283.820 220.800 L 283.800 215.800 252.488 215.698 C 226.883 215.614,221.140 215.691,220.975 216.122 M115.373 237.326 C 115.262 237.615,115.230 239.820,115.301 242.226 L 115.430 246.600 115.515 241.907 L 115.600 237.214 125.900 237.100 L 136.200 236.986 125.887 236.893 C 117.671 236.819,115.534 236.907,115.373 237.326 M178.488 237.099 L 209.575 237.205 209.708 242.102 L 209.840 247.000 209.820 242.000 L 209.800 237.000 178.600 236.996 L 147.400 236.993 178.488 237.099 M220.974 237.323 C 220.863 237.614,220.830 239.820,220.901 242.226 L 221.030 246.600 221.115 241.900 L 221.200 237.200 252.388 237.200 L 283.575 237.200 283.708 242.100 L 283.840 247.000 283.820 242.000 L 283.800 237.000 252.488 236.898 C 226.846 236.814,221.140 236.891,220.974 237.323 M115.353 263.000 C 115.353 265.640,115.418 266.668,115.497 265.284 C 115.575 263.901,115.574 261.741,115.495 260.484 C 115.416 259.228,115.352 260.360,115.353 263.000 M272.905 258.687 C 273.514 258.779,274.414 258.777,274.905 258.682 C 275.397 258.587,274.900 258.511,273.800 258.514 C 272.700 258.517,272.297 258.595,272.905 258.687 M271.105 269.883 C 271.602 269.979,272.322 269.975,272.705 269.875 C 273.087 269.775,272.680 269.696,271.800 269.701 C 270.920 269.705,270.607 269.787,271.105 269.883 M288.893 273.600 C 288.893 274.370,288.975 274.685,289.076 274.300 C 289.176 273.915,289.176 273.285,289.076 272.900 C 288.975 272.515,288.893 272.830,288.893 273.600 M278.509 279.200 C 278.509 280.190,278.587 280.595,278.682 280.100 C 278.778 279.605,278.778 278.795,278.682 278.300 C 278.587 277.805,278.509 278.210,278.509 279.200 M236.154 284.000 C 236.154 286.750,236.218 287.875,236.296 286.500 C 236.374 285.125,236.374 282.875,236.296 281.500 C 236.218 280.125,236.154 281.250,236.154 284.000 M115.270 284.076 C 115.231 286.648,115.335 288.837,115.500 288.940 C 115.665 289.042,115.752 287.658,115.692 285.863 C 115.498 279.983,115.341 279.318,115.270 284.076 M278.593 330.800 C 278.593 356.210,278.641 366.605,278.700 353.900 C 278.759 341.195,278.759 320.405,278.700 307.700 C 278.641 294.995,278.593 305.390,278.593 330.800 M263.720 295.200 C 263.720 296.410,263.795 296.905,263.887 296.300 C 263.978 295.695,263.978 294.705,263.887 294.100 C 263.795 293.495,263.720 293.990,263.720 295.200 M252.167 302.600 C 252.167 306.780,252.226 308.436,252.298 306.279 C 252.371 304.123,252.370 300.703,252.298 298.679 C 252.225 296.656,252.166 298.420,252.167 302.600 M83.444 298.600 C 83.773 300.071,84.002 300.390,83.994 299.367 C 83.991 298.945,83.805 298.330,83.582 298.000 C 83.285 297.562,83.248 297.724,83.444 298.600 M263.346 302.600 C 263.347 304.800,263.414 305.649,263.495 304.487 C 263.576 303.324,263.576 301.524,263.493 300.487 C 263.411 299.449,263.345 300.400,263.346 302.600 M315.254 299.467 C 315.225 299.944,315.096 300.664,314.970 301.067 C 314.752 301.761,314.764 301.762,315.196 301.088 C 315.447 300.697,315.575 299.977,315.481 299.488 C 315.309 298.601,315.309 298.601,315.254 299.467 M167.600 359.120 L 167.800 397.000 167.902 359.422 C 167.958 338.754,167.868 321.708,167.702 321.542 C 167.536 321.376,167.490 338.286,167.600 359.120 M287.134 378.669 C 286.768 378.766,286.378 379.081,286.267 379.370 C 286.107 379.786,286.265 379.802,287.030 379.447 C 287.560 379.201,287.995 378.865,287.997 378.700 C 287.999 378.535,287.955 378.421,287.900 378.446 C 287.845 378.472,287.500 378.572,287.134 378.669 M282.577 380.967 C 282.150 381.279,281.936 381.669,282.101 381.834 C 282.265 381.999,282.400 381.923,282.400 381.667 C 282.400 381.410,282.760 381.200,283.200 381.200 C 283.640 381.200,284.000 381.020,284.000 380.800 C 284.000 380.241,283.488 380.301,282.577 380.967 M170.800 397.200 C 170.800 397.420,171.070 397.600,171.400 397.600 C 171.730 397.600,172.000 397.420,172.000 397.200 C 172.000 396.980,171.730 396.800,171.400 396.800 C 171.070 396.800,170.800 396.980,170.800 397.200 " stroke="none" fill="#a0786a" fill-rule="evenodd"></path><path id="path5" d="M290.400 66.200 C 303.709 79.510,314.688 90.400,314.798 90.400 C 314.908 90.400,304.109 79.510,290.800 66.200 C 277.491 52.890,266.512 42.000,266.402 42.000 C 266.292 42.000,277.091 52.890,290.400 66.200 M257.386 73.600 C 257.386 85.370,257.437 90.185,257.500 84.300 C 257.562 78.415,257.562 68.785,257.500 62.900 C 257.437 57.015,257.386 61.830,257.386 73.600 M268.580 74.400 C 268.580 81.990,268.634 85.095,268.699 81.300 C 268.765 77.505,268.765 71.295,268.699 67.500 C 268.634 63.705,268.580 66.810,268.580 74.400 M316.197 194.600 C 316.197 250.480,316.243 273.399,316.300 245.532 C 316.357 217.665,316.357 171.945,316.300 143.932 C 316.243 115.919,316.197 138.720,316.197 194.600 M273.286 115.094 L 273.200 119.989 260.300 120.100 L 247.400 120.211 260.313 120.306 C 270.662 120.381,273.265 120.296,273.426 119.876 C 273.537 119.587,273.570 117.292,273.499 114.776 L 273.371 110.200 273.286 115.094 M213.100 120.299 C 217.335 120.364,224.265 120.364,228.500 120.299 C 232.735 120.235,229.270 120.182,220.800 120.182 C 212.330 120.182,208.865 120.235,213.100 120.299 M273.353 136.200 C 273.353 138.840,273.418 139.868,273.497 138.484 C 273.575 137.101,273.574 134.941,273.495 133.684 C 273.416 132.428,273.352 133.560,273.353 136.200 M162.398 141.481 C 162.289 144.386,162.341 146.621,162.513 146.449 C 162.685 146.276,162.774 143.899,162.711 141.167 L 162.597 136.200 162.398 141.481 M144.000 173.490 C 163.022 173.768,178.307 173.773,178.138 173.500 C 178.036 173.335,168.648 173.241,157.276 173.291 C 145.904 173.340,139.930 173.430,144.000 173.490 M197.074 173.499 C 201.294 173.564,208.314 173.564,212.674 173.500 C 217.033 173.435,213.580 173.382,205.000 173.382 C 196.420 173.382,192.853 173.435,197.074 173.499 M244.929 173.500 C 252.150 173.561,263.850 173.561,270.929 173.500 C 278.008 173.439,272.100 173.389,257.800 173.389 C 243.500 173.389,237.708 173.439,244.929 173.500 M252.154 199.600 C 252.154 202.350,252.218 203.475,252.296 202.100 C 252.374 200.725,252.374 198.475,252.296 197.100 C 252.218 195.725,252.154 196.850,252.154 199.600 M146.981 220.899 L 147.000 225.800 178.200 225.804 L 209.400 225.807 178.312 225.701 L 147.225 225.595 147.093 220.797 L 146.961 215.999 146.981 220.899 M120.500 225.899 C 123.305 225.968,127.895 225.968,130.700 225.899 C 133.505 225.830,131.210 225.774,125.600 225.774 C 119.990 225.774,117.695 225.830,120.500 225.899 M236.700 225.900 C 245.335 225.960,259.465 225.960,268.100 225.900 C 276.735 225.840,269.670 225.790,252.400 225.790 C 235.130 225.790,228.065 225.840,236.700 225.900 M146.954 242.000 C 146.954 244.750,147.018 245.875,147.096 244.500 C 147.174 243.125,147.174 240.875,147.096 239.500 C 147.018 238.125,146.954 239.250,146.954 242.000 M120.923 247.099 C 123.741 247.168,128.241 247.168,130.923 247.099 C 133.605 247.030,131.300 246.973,125.800 246.973 C 120.300 246.974,118.105 247.030,120.923 247.099 M163.130 247.100 C 171.781 247.160,185.821 247.160,194.330 247.100 C 202.838 247.040,195.760 246.990,178.600 246.990 C 161.440 246.990,154.478 247.040,163.130 247.100 M237.130 247.100 C 245.781 247.160,259.821 247.160,268.330 247.100 C 276.838 247.040,269.760 246.990,252.600 246.990 C 235.440 246.990,228.478 247.040,237.130 247.100 M173.353 263.000 C 173.353 265.640,173.418 266.668,173.497 265.284 C 173.575 263.901,173.574 261.741,173.495 260.484 C 173.416 259.228,173.352 260.360,173.353 263.000 M246.953 263.000 C 246.953 265.640,247.018 266.668,247.097 265.284 C 247.175 263.901,247.174 261.741,247.095 260.484 C 247.016 259.228,246.952 260.360,246.953 263.000 M257.978 265.500 L 256.600 267.000 258.100 265.622 C 259.496 264.338,259.784 264.000,259.478 264.000 C 259.412 264.000,258.737 264.675,257.978 265.500 M252.170 286.600 C 252.171 291.440,252.229 293.365,252.299 290.878 C 252.369 288.391,252.369 284.431,252.298 282.078 C 252.228 279.725,252.170 281.760,252.170 286.600 M264.114 280.200 C 264.117 281.300,264.195 281.703,264.287 281.095 C 264.379 280.486,264.377 279.586,264.282 279.095 C 264.187 278.603,264.111 279.100,264.114 280.200 M115.461 279.100 C 115.359 279.265,118.273 279.354,121.937 279.297 C 134.532 279.102,135.781 278.966,125.724 278.883 C 120.182 278.837,115.563 278.935,115.461 279.100 M169.731 279.100 C 182.013 279.159,201.993 279.159,214.131 279.100 C 226.269 279.041,216.220 278.993,191.800 278.993 C 167.380 278.993,157.449 279.041,169.731 279.100 M146.953 284.200 C 146.953 286.840,147.018 287.868,147.097 286.484 C 147.175 285.101,147.174 282.941,147.095 281.684 C 147.016 280.428,146.952 281.560,146.953 284.200 M278.520 282.800 C 278.520 284.010,278.595 284.505,278.687 283.900 C 278.778 283.295,278.778 282.305,278.687 281.700 C 278.595 281.095,278.520 281.590,278.520 282.800 M263.693 298.400 C 263.693 299.170,263.775 299.485,263.876 299.100 C 263.976 298.715,263.976 298.085,263.876 297.700 C 263.775 297.315,263.693 297.630,263.693 298.400 M263.354 311.200 C 263.354 313.950,263.418 315.075,263.496 313.700 C 263.574 312.325,263.574 310.075,263.496 308.700 C 263.418 307.325,263.354 308.450,263.354 311.200 M143.468 310.300 C 163.306 310.357,195.886 310.357,215.868 310.300 C 235.851 310.243,219.620 310.196,179.800 310.196 C 139.980 310.196,123.631 310.243,143.468 310.300 M122.100 321.500 C 130.405 321.560,143.995 321.560,152.300 321.500 C 160.605 321.439,153.810 321.390,137.200 321.390 C 120.590 321.390,113.795 321.439,122.100 321.500 M198.900 321.500 C 209.845 321.559,227.755 321.559,238.700 321.500 C 249.645 321.441,240.690 321.392,218.800 321.392 C 196.910 321.392,187.955 321.441,198.900 321.500 M289.790 321.700 C 289.472 322.558,289.383 378.734,289.700 378.538 C 289.865 378.436,290.000 365.595,290.000 350.003 L 290.000 321.653 291.100 321.487 L 292.200 321.320 291.087 321.260 C 290.476 321.227,289.892 321.425,289.790 321.700 M278.534 379.600 C 278.534 381.250,278.605 381.925,278.691 381.100 C 278.778 380.275,278.778 378.925,278.691 378.100 C 278.605 377.275,278.534 377.950,278.534 379.600 M288.000 378.753 C 288.000 378.948,287.603 379.211,287.117 379.337 C 286.632 379.464,286.339 379.672,286.466 379.799 C 286.766 380.100,288.800 379.173,288.800 378.736 C 288.800 378.551,288.620 378.400,288.400 378.400 C 288.180 378.400,288.000 378.559,288.000 378.753 M282.400 381.600 C 282.400 381.820,282.670 382.000,283.000 382.000 C 283.330 382.000,283.600 381.820,283.600 381.600 C 283.600 381.380,283.330 381.200,283.000 381.200 C 282.670 381.200,282.400 381.380,282.400 381.600 M280.600 382.000 C 279.829 382.331,279.831 382.345,280.676 382.372 C 281.158 382.387,281.664 382.220,281.800 382.000 C 282.092 381.527,281.701 381.527,280.600 382.000 M167.601 397.100 C 167.601 397.265,168.321 397.449,169.201 397.510 C 170.097 397.571,170.800 397.439,170.800 397.210 C 170.800 396.984,170.080 396.800,169.200 396.800 C 168.320 396.800,167.600 396.935,167.601 397.100 M173.200 398.000 C 173.200 398.511,175.609 398.511,176.400 398.000 C 176.834 397.720,176.474 397.611,175.100 397.606 C 174.055 397.603,173.200 397.780,173.200 398.000 " stroke="none" fill="#9c8974" fill-rule="evenodd"></path><path id="path6" d="M194.192 115.200 C 194.192 135.770,194.240 144.185,194.300 133.900 C 194.359 123.615,194.359 106.785,194.300 96.500 C 194.240 86.215,194.192 94.630,194.192 115.200 M120.267 83.467 C 119.880 83.853,119.950 146.102,120.337 146.712 C 120.581 147.096,121.965 147.197,125.831 147.112 L 131.000 147.000 131.018 141.499 L 131.035 135.999 130.906 141.411 L 130.777 146.824 125.689 146.712 L 120.600 146.600 120.498 115.225 C 120.416 90.390,120.500 83.784,120.898 83.531 C 121.194 83.343,121.222 83.210,120.967 83.206 C 120.728 83.203,120.413 83.320,120.267 83.467 M183.505 115.012 L 183.610 146.824 178.505 146.712 L 173.400 146.600 173.186 139.600 L 172.971 132.600 172.892 139.400 C 172.792 147.891,172.315 147.250,178.631 147.112 L 183.800 147.000 183.902 115.100 C 183.959 97.555,183.869 83.200,183.702 83.200 C 183.536 83.200,183.447 97.515,183.505 115.012 M150.700 94.289 C 151.415 94.378,152.585 94.378,153.300 94.289 C 154.015 94.201,153.430 94.128,152.000 94.128 C 150.570 94.128,149.985 94.201,150.700 94.289 M161.684 97.575 C 162.500 98.266,163.715 99.496,164.384 100.307 C 165.053 101.118,165.600 101.644,165.600 101.474 C 165.600 100.990,161.926 97.185,161.017 96.728 C 160.568 96.502,160.868 96.883,161.684 97.575 M140.755 98.700 C 139.481 100.108,138.656 101.200,138.866 101.200 C 138.957 101.200,139.708 100.390,140.535 99.400 C 142.187 97.424,142.335 96.953,140.755 98.700 M136.649 105.815 C 136.512 106.173,136.421 106.946,136.446 107.533 C 136.480 108.332,136.570 108.198,136.804 107.000 C 137.135 105.300,137.062 104.740,136.649 105.815 M167.724 109.800 C 167.726 111.120,167.801 111.612,167.890 110.893 C 167.979 110.174,167.977 109.094,167.886 108.493 C 167.795 107.892,167.722 108.480,167.724 109.800 M136.406 112.233 C 136.409 112.875,136.584 113.670,136.795 114.000 C 137.055 114.409,137.099 114.090,136.932 113.000 C 136.629 111.023,136.398 110.686,136.406 112.233 M136.800 121.800 C 135.828 122.790,135.123 123.600,135.233 123.600 C 135.343 123.600,136.228 122.790,137.200 121.800 C 138.172 120.810,138.877 120.000,138.767 120.000 C 138.657 120.000,137.772 120.810,136.800 121.800 M131.429 131.429 C 131.281 132.015,131.238 132.572,131.332 132.666 C 131.427 132.760,131.624 132.358,131.771 131.771 C 131.919 131.185,131.962 130.628,131.868 130.534 C 131.773 130.440,131.576 130.842,131.429 131.429 M222.300 141.500 C 231.595 141.560,246.805 141.560,256.100 141.500 C 265.395 141.440,257.790 141.391,239.200 141.391 C 220.610 141.391,213.005 141.440,222.300 141.500 M220.553 178.600 C 220.553 181.240,220.618 182.268,220.697 180.884 C 220.775 179.501,220.774 177.341,220.695 176.084 C 220.616 174.828,220.552 175.960,220.553 178.600 " stroke="none" fill="#7c9c9c" fill-rule="evenodd"></path><path id="path7" d="M290.600 66.000 C 303.799 79.200,314.687 90.000,314.797 90.000 C 314.907 90.000,304.199 79.200,291.000 66.000 C 277.801 52.800,266.913 42.000,266.803 42.000 C 266.693 42.000,277.401 52.800,290.600 66.000 M82.997 181.200 C 82.997 245.770,83.044 272.185,83.100 239.900 C 83.156 207.615,83.156 154.785,83.100 122.500 C 83.044 90.215,82.997 116.630,82.997 181.200 M151.233 104.543 C 151.325 104.621,152.030 104.801,152.800 104.942 C 153.785 105.123,154.022 105.082,153.600 104.806 C 153.058 104.450,150.837 104.203,151.233 104.543 M146.901 109.800 C 146.905 110.680,146.987 110.993,147.083 110.495 C 147.179 109.998,147.175 109.278,147.075 108.895 C 146.975 108.513,146.896 108.920,146.901 109.800 M149.400 126.157 C 146.740 126.993,144.577 128.627,143.158 130.873 L 141.813 133.000 141.807 139.800 L 141.800 146.600 152.000 146.600 L 162.200 146.600 162.317 140.600 C 162.464 133.085,162.141 131.787,159.434 129.026 C 156.553 126.088,152.921 125.050,149.400 126.157 M154.581 126.769 C 154.706 126.972,155.362 127.260,156.037 127.408 C 159.935 128.264,161.948 132.701,161.978 140.500 L 162.000 146.400 152.200 146.400 L 142.400 146.400 142.400 140.178 C 142.400 132.011,144.029 128.411,148.198 127.365 C 148.753 127.225,149.306 126.951,149.427 126.756 C 149.719 126.284,154.289 126.296,154.581 126.769 M264.159 288.800 C 264.159 291.990,264.221 293.295,264.297 291.700 C 264.373 290.105,264.373 287.495,264.297 285.900 C 264.221 284.305,264.159 285.610,264.159 288.800 M315.850 298.050 C 315.709 298.753,315.669 299.402,315.759 299.492 C 315.850 299.583,316.048 299.091,316.200 298.400 C 316.352 297.709,316.393 297.059,316.291 296.958 C 316.189 296.856,315.991 297.347,315.850 298.050 M263.720 302.000 C 263.720 303.210,263.795 303.705,263.887 303.100 C 263.978 302.495,263.978 301.505,263.887 300.900 C 263.795 300.295,263.720 300.790,263.720 302.000 M90.600 313.600 C 91.683 314.700,92.660 315.600,92.770 315.600 C 92.880 315.600,92.083 314.700,91.000 313.600 C 89.917 312.500,88.940 311.600,88.830 311.600 C 88.720 311.600,89.517 312.500,90.600 313.600 M308.400 313.400 C 307.428 314.390,306.723 315.200,306.833 315.200 C 306.943 315.200,307.828 314.390,308.800 313.400 C 309.772 312.410,310.477 311.600,310.367 311.600 C 310.257 311.600,309.372 312.410,308.400 313.400 M167.344 325.200 C 167.344 327.290,167.412 328.145,167.494 327.100 C 167.576 326.055,167.576 324.345,167.494 323.300 C 167.412 322.255,167.344 323.110,167.344 325.200 M178.898 359.671 C 178.806 395.735,178.760 397.952,178.100 398.124 C 177.444 398.296,177.445 398.310,178.113 398.354 C 179.234 398.427,179.212 399.325,179.101 359.400 L 178.996 321.400 178.898 359.671 " stroke="none" fill="#c19e88" fill-rule="evenodd"></path></g></svg>